<svg xmlns="http://www.w3.org/2000/svg" xmlns:xlink="http://www.w3.org/1999/xlink" contentStyleType="text/css" height="874px" preserveAspectRatio="none" style="width:1224px;height:874px;background:#FFFFFF;" version="1.1" viewBox="0 0 1224 874" width="1224px" zoomAndPan="magnify"><defs/><g><!--class User--><g id="elem_User"><rect codeLine="7" fill="#F1F1F1" height="194.6719" id="User" rx="2.5" ry="2.5" style="stroke:#181818;stroke-width:0.5;" width="149.2725" x="500.39" y="7"/><ellipse cx="555.3046" cy="23" fill="#ADD1B2" rx="11" ry="11" style="stroke:#181818;stroke-width:1;"/><path d="M558.2733,28.6406 Q557.6952,28.9375 557.0546,29.0781 Q556.4139,29.2344 555.7108,29.2344 Q553.2108,29.2344 551.8827,27.5938 Q550.5702,25.9375 550.5702,22.8125 Q550.5702,19.6875 551.8827,18.0313 Q553.2108,16.375 555.7108,16.375 Q556.4139,16.375 557.0546,16.5313 Q557.7108,16.6875 558.2733,16.9844 L558.2733,19.7031 Q557.6483,19.125 557.0546,18.8594 Q556.4608,18.5781 555.8358,18.5781 Q554.4921,18.5781 553.8046,19.6563 Q553.1171,20.7188 553.1171,22.8125 Q553.1171,24.9063 553.8046,25.9844 Q554.4921,27.0469 555.8358,27.0469 Q556.4608,27.0469 557.0546,26.7813 Q557.6483,26.5 558.2733,25.9219 L558.2733,28.6406 Z " fill="#000000"/><text fill="#000000" font-family="sans-serif" font-size="12" font-weight="bold" lengthAdjust="spacing" textLength="30.9434" x="575.8046" y="27.1543">User</text><line style="stroke:#181818;stroke-width:0.5;" x1="501.39" x2="648.6625" y1="39" y2="39"/><text fill="#000000" font-family="sans-serif" font-size="14" lengthAdjust="spacing" textLength="45.2471" x="506.39" y="55.9951">-id: int</text><text fill="#000000" font-family="sans-serif" font-size="14" lengthAdjust="spacing" textLength="126.2393" x="506.39" y="72.292">-username: String</text><text fill="#000000" font-family="sans-serif" font-size="14" lengthAdjust="spacing" textLength="122.7119" x="506.39" y="88.5889">-password: String</text><text fill="#000000" font-family="sans-serif" font-size="14" lengthAdjust="spacing" textLength="102.3818" x="506.39" y="104.8857">#name: String</text><text fill="#000000" font-family="sans-serif" font-size="14" lengthAdjust="spacing" textLength="101.2881" x="506.39" y="121.1826">~email: String</text><line style="stroke:#181818;stroke-width:0.5;" x1="501.39" x2="648.6625" y1="128.4844" y2="128.4844"/><text fill="#000000" font-family="sans-serif" font-size="14" lengthAdjust="spacing" textLength="95.5527" x="506.39" y="145.4795">+login(): void</text><text fill="#000000" font-family="sans-serif" font-size="14" lengthAdjust="spacing" textLength="105.7178" x="506.39" y="161.7764">+logout(): void</text><text fill="#000000" font-family="sans-serif" font-size="14" lengthAdjust="spacing" textLength="137.2725" x="506.39" y="178.0732">+updateInfo(): void</text><text fill="#000000" font-family="sans-serif" font-size="14" lengthAdjust="spacing" textLength="117.9883" x="506.39" y="194.3701">+getUserId(): int</text></g><!--class Admin--><g id="elem_Admin"><rect codeLine="20" fill="#F1F1F1" height="227.2656" id="Admin" rx="2.5" ry="2.5" style="stroke:#181818;stroke-width:0.5;" width="498.9102" x="325.57" y="261.68"/><ellipse cx="549.2565" cy="277.68" fill="#ADD1B2" rx="11" ry="11" style="stroke:#181818;stroke-width:1;"/><path d="M552.2253,283.3206 Q551.6471,283.6175 551.0065,283.7581 Q550.3659,283.9144 549.6628,283.9144 Q547.1628,283.9144 545.8346,282.2737 Q544.5221,280.6175 544.5221,277.4925 Q544.5221,274.3675 545.8346,272.7112 Q547.1628,271.055 549.6628,271.055 Q550.3659,271.055 551.0065,271.2112 Q551.6628,271.3675 552.2253,271.6644 L552.2253,274.3831 Q551.6003,273.805 551.0065,273.5394 Q550.4128,273.2581 549.7878,273.2581 Q548.444,273.2581 547.7565,274.3362 Q547.069,275.3987 547.069,277.4925 Q547.069,279.5862 547.7565,280.6644 Q548.444,281.7269 549.7878,281.7269 Q550.4128,281.7269 551.0065,281.4612 Q551.6003,281.18 552.2253,280.6019 L552.2253,283.3206 Z " fill="#000000"/><text fill="#000000" font-family="sans-serif" font-size="12" font-weight="bold" lengthAdjust="spacing" textLength="43.0371" x="569.7565" y="281.8343">Admin</text><line style="stroke:#181818;stroke-width:0.5;" x1="326.57" x2="823.4802" y1="293.68" y2="293.68"/><line style="stroke:#181818;stroke-width:0.5;" x1="326.57" x2="823.4802" y1="301.68" y2="301.68"/><text fill="#000000" font-family="sans-serif" font-size="14" lengthAdjust="spacing" textLength="260.709" x="331.57" y="318.6751">+addStudent(student: Student): void</text><text fill="#000000" font-family="sans-serif" font-size="14" lengthAdjust="spacing" textLength="278.1475" x="331.57" y="334.972">+deleteStudent(studentId: String): void</text><text fill="#000000" font-family="sans-serif" font-size="14" lengthAdjust="spacing" textLength="482.2549" x="331.57" y="351.2689">+updateStudent(studentId: String, data: Map&lt;String, Object&gt;): void</text><text fill="#000000" font-family="sans-serif" font-size="14" lengthAdjust="spacing" textLength="217.834" x="331.57" y="367.5657">+listStudents(): List&lt;Student&gt;</text><text fill="#000000" font-family="sans-serif" font-size="14" lengthAdjust="spacing" textLength="289.4746" x="331.57" y="383.8626">+searchStudent(criteria: String): Student</text><text fill="#000000" font-family="sans-serif" font-size="14" lengthAdjust="spacing" textLength="268.8506" x="331.57" y="400.1595">+addLecturer(lecturer: Lecturer): void</text><text fill="#000000" font-family="sans-serif" font-size="14" lengthAdjust="spacing" textLength="282.8027" x="331.57" y="416.4564">+deleteLecturer(lecturerId: String): void</text><text fill="#000000" font-family="sans-serif" font-size="14" lengthAdjust="spacing" textLength="486.9102" x="331.57" y="432.7532">+updateLecturer(lecturerId: String, data: Map&lt;String, Object&gt;): void</text><text fill="#000000" font-family="sans-serif" font-size="14" lengthAdjust="spacing" textLength="224.8066" x="331.57" y="449.0501">+listLecturers(): List&lt;Lecturer&gt;</text><text fill="#000000" font-family="sans-serif" font-size="14" lengthAdjust="spacing" textLength="296.4473" x="331.57" y="465.347">+searchLecturer(criteria: String): Lecturer</text><text fill="#000000" font-family="sans-serif" font-size="14" lengthAdjust="spacing" textLength="290.4932" x="331.57" y="481.6439">+manageSubjects(subject: Subject): void</text></g><!--class Lecturer--><g id="elem_Lecturer"><rect codeLine="35" fill="#F1F1F1" height="145.7813" id="Lecturer" rx="2.5" ry="2.5" style="stroke:#181818;stroke-width:0.5;" width="425.3555" x="35.35" y="548.94"/><ellipse cx="215.2016" cy="564.94" fill="#ADD1B2" rx="11" ry="11" style="stroke:#181818;stroke-width:1;"/><path d="M218.1703,570.5806 Q217.5922,570.8775 216.9516,571.0181 Q216.3109,571.1744 215.6078,571.1744 Q213.1078,571.1744 211.7797,569.5337 Q210.4672,567.8775 210.4672,564.7525 Q210.4672,561.6275 211.7797,559.9712 Q213.1078,558.315 215.6078,558.315 Q216.3109,558.315 216.9516,558.4712 Q217.6078,558.6275 218.1703,558.9244 L218.1703,561.6431 Q217.5453,561.065 216.9516,560.7994 Q216.3578,560.5181 215.7328,560.5181 Q214.3891,560.5181 213.7016,561.5962 Q213.0141,562.6587 213.0141,564.7525 Q213.0141,566.8462 213.7016,567.9244 Q214.3891,568.9869 215.7328,568.9869 Q216.3578,568.9869 216.9516,568.7212 Q217.5453,568.44 218.1703,567.8619 L218.1703,570.5806 Z " fill="#000000"/><text fill="#000000" font-family="sans-serif" font-size="12" font-weight="bold" lengthAdjust="spacing" textLength="57.1523" x="235.7016" y="569.0943">Lecturer</text><line style="stroke:#181818;stroke-width:0.5;" x1="36.35" x2="459.7055" y1="580.94" y2="580.94"/><line style="stroke:#181818;stroke-width:0.5;" x1="36.35" x2="459.7055" y1="588.94" y2="588.94"/><text fill="#000000" font-family="sans-serif" font-size="14" lengthAdjust="spacing" textLength="165.2588" x="41.35" y="605.9351">+manageExams(): void</text><text fill="#000000" font-family="sans-serif" font-size="14" lengthAdjust="spacing" textLength="214.7783" x="41.35" y="622.232">+addExam(exam: Exam): void</text><text fill="#000000" font-family="sans-serif" font-size="14" lengthAdjust="spacing" textLength="247.9805" x="41.35" y="638.5289">+deleteExam(examId: String): void</text><text fill="#000000" font-family="sans-serif" font-size="14" lengthAdjust="spacing" textLength="413.3555" x="41.35" y="654.8257">+updateExam(examId: String, data: List&lt;Question&gt;): void</text><text fill="#000000" font-family="sans-serif" font-size="14" lengthAdjust="spacing" textLength="186.3066" x="41.35" y="671.1226">+listExams(): List&lt;Exam&gt;</text><text fill="#000000" font-family="sans-serif" font-size="14" lengthAdjust="spacing" textLength="189.3213" x="41.35" y="687.4195">+generateReport(): Report</text></g><!--class Student--><g id="elem_Student"><rect codeLine="45" fill="#F1F1F1" height="80.5938" id="Student" rx="2.5" ry="2.5" style="stroke:#181818;stroke-width:0.5;" width="246.6641" x="627.7" y="581.53"/><ellipse cx="719.8172" cy="597.53" fill="#ADD1B2" rx="11" ry="11" style="stroke:#181818;stroke-width:1;"/><path d="M722.7859,603.1706 Q722.2078,603.4675 721.5672,603.6081 Q720.9266,603.7644 720.2234,603.7644 Q717.7234,603.7644 716.3953,602.1238 Q715.0828,600.4675 715.0828,597.3425 Q715.0828,594.2175 716.3953,592.5613 Q717.7234,590.905 720.2234,590.905 Q720.9266,590.905 721.5672,591.0613 Q722.2234,591.2175 722.7859,591.5144 L722.7859,594.2331 Q722.1609,593.655 721.5672,593.3894 Q720.9734,593.1081 720.3484,593.1081 Q719.0047,593.1081 718.3172,594.1863 Q717.6297,595.2488 717.6297,597.3425 Q717.6297,599.4363 718.3172,600.5144 Q719.0047,601.5769 720.3484,601.5769 Q720.9734,601.5769 721.5672,601.3113 Q722.1609,601.03 722.7859,600.4519 L722.7859,603.1706 Z " fill="#000000"/><text fill="#000000" font-family="sans-serif" font-size="12" font-weight="bold" lengthAdjust="spacing" textLength="53.9297" x="740.3172" y="601.6843">Student</text><line style="stroke:#181818;stroke-width:0.5;" x1="628.7" x2="873.3641" y1="613.53" y2="613.53"/><line style="stroke:#181818;stroke-width:0.5;" x1="628.7" x2="873.3641" y1="621.53" y2="621.53"/><text fill="#000000" font-family="sans-serif" font-size="14" lengthAdjust="spacing" textLength="234.6641" x="633.7" y="638.5251">+takeExam(examId: String): void</text><text fill="#000000" font-family="sans-serif" font-size="14" lengthAdjust="spacing" textLength="207.0605" x="633.7" y="654.822">+viewResults(): List&lt;Result&gt;</text></g><!--class Subject--><g id="elem_Subject"><rect codeLine="51" fill="#F1F1F1" height="113.1875" id="Subject" rx="2.5" ry="2.5" style="stroke:#181818;stroke-width:0.5;" width="316.4316" x="470.81" y="754.72"/><ellipse cx="599.3373" cy="770.72" fill="#ADD1B2" rx="11" ry="11" style="stroke:#181818;stroke-width:1;"/><path d="M602.3061,776.3606 Q601.728,776.6575 601.0873,776.7981 Q600.4467,776.9544 599.7436,776.9544 Q597.2436,776.9544 595.9155,775.3137 Q594.603,773.6575 594.603,770.5325 Q594.603,767.4075 595.9155,765.7512 Q597.2436,764.095 599.7436,764.095 Q600.4467,764.095 601.0873,764.2512 Q601.7436,764.4075 602.3061,764.7044 L602.3061,767.4231 Q601.6811,766.845 601.0873,766.5794 Q600.4936,766.2981 599.8686,766.2981 Q598.5248,766.2981 597.8373,767.3762 Q597.1498,768.4387 597.1498,770.5325 Q597.1498,772.6262 597.8373,773.7044 Q598.5248,774.7669 599.8686,774.7669 Q600.4936,774.7669 601.0873,774.5012 Q601.6811,774.22 602.3061,773.6419 L602.3061,776.3606 Z " fill="#000000"/><text fill="#000000" font-family="sans-serif" font-size="12" font-weight="bold" lengthAdjust="spacing" textLength="50.877" x="619.8373" y="774.8743">Subject</text><line style="stroke:#181818;stroke-width:0.5;" x1="471.81" x2="786.2416" y1="786.72" y2="786.72"/><text fill="#000000" font-family="sans-serif" font-size="14" lengthAdjust="spacing" textLength="102.3818" x="476.81" y="803.7151">#name: String</text><text fill="#000000" font-family="sans-serif" font-size="14" lengthAdjust="spacing" textLength="96.4414" x="476.81" y="820.012">~code: String</text><line style="stroke:#181818;stroke-width:0.5;" x1="471.81" x2="786.2416" y1="827.3137" y2="827.3137"/><text fill="#000000" font-family="sans-serif" font-size="14" lengthAdjust="spacing" textLength="296.29" x="476.81" y="844.3089">+assignToStudent(student: Student): void</text><text fill="#000000" font-family="sans-serif" font-size="14" lengthAdjust="spacing" textLength="304.4316" x="476.81" y="860.6057">+assignToLecturer(lecturer: Lecturer): void</text></g><!--class Exam--><g id="elem_Exam"><rect codeLine="58" fill="#F1F1F1" height="145.7813" id="Exam" rx="2.5" ry="2.5" style="stroke:#181818;stroke-width:0.5;" width="273.8984" x="909.08" y="548.94"/><ellipse cx="1023.5097" cy="564.94" fill="#ADD1B2" rx="11" ry="11" style="stroke:#181818;stroke-width:1;"/><path d="M1026.4784,570.5806 Q1025.9003,570.8775 1025.2597,571.0181 Q1024.6191,571.1744 1023.9159,571.1744 Q1021.4159,571.1744 1020.0878,569.5337 Q1018.7753,567.8775 1018.7753,564.7525 Q1018.7753,561.6275 1020.0878,559.9712 Q1021.4159,558.315 1023.9159,558.315 Q1024.6191,558.315 1025.2597,558.4712 Q1025.9159,558.6275 1026.4784,558.9244 L1026.4784,561.6431 Q1025.8534,561.065 1025.2597,560.7994 Q1024.6659,560.5181 1024.0409,560.5181 Q1022.6972,560.5181 1022.0097,561.5962 Q1021.3222,562.6587 1021.3222,564.7525 Q1021.3222,566.8462 1022.0097,567.9244 Q1022.6972,568.9869 1024.0409,568.9869 Q1024.6659,568.9869 1025.2597,568.7212 Q1025.8534,568.44 1026.4784,567.8619 L1026.4784,570.5806 Z " fill="#000000"/><text fill="#000000" font-family="sans-serif" font-size="12" font-weight="bold" lengthAdjust="spacing" textLength="36.5391" x="1044.0097" y="569.0943">Exam</text><line style="stroke:#181818;stroke-width:0.5;" x1="910.08" x2="1181.9784" y1="580.94" y2="580.94"/><text fill="#000000" font-family="sans-serif" font-size="14" lengthAdjust="spacing" textLength="108.1309" x="915.08" y="597.9351">-examId: String</text><text fill="#000000" font-family="sans-serif" font-size="14" lengthAdjust="spacing" textLength="117.2979" x="915.08" y="614.232">-subject: Subject</text><text fill="#000000" font-family="sans-serif" font-size="14" lengthAdjust="spacing" textLength="91.3828" x="915.08" y="630.5289">-duration: int</text><text fill="#000000" font-family="sans-serif" font-size="14" lengthAdjust="spacing" textLength="192.5479" x="915.08" y="646.8257">-questions: List&lt;Question&gt;</text><line style="stroke:#181818;stroke-width:0.5;" x1="910.08" x2="1181.9784" y1="654.1275" y2="654.1275"/><text fill="#000000" font-family="sans-serif" font-size="14" lengthAdjust="spacing" textLength="261.8984" x="915.08" y="671.1226">+calculateStudentExamGrade(): void</text><text fill="#000000" font-family="sans-serif" font-size="14" lengthAdjust="spacing" textLength="172.0811" x="915.08" y="687.4195">-shuffleQuestions(): void</text></g><!--class Question--><g id="elem_Question"><rect codeLine="67" fill="#F1F1F1" height="113.1875" id="Question" rx="2.5" ry="2.5" style="stroke:#181818;stroke-width:0.5;" width="342.5107" x="874.77" y="754.72"/><ellipse cx="1011.4443" cy="770.72" fill="#ADD1B2" rx="11" ry="11" style="stroke:#181818;stroke-width:1;"/><path d="M1014.4131,776.3606 Q1013.8349,776.6575 1013.1943,776.7981 Q1012.5537,776.9544 1011.8506,776.9544 Q1009.3506,776.9544 1008.0224,775.3137 Q1006.7099,773.6575 1006.7099,770.5325 Q1006.7099,767.4075 1008.0224,765.7512 Q1009.3506,764.095 1011.8506,764.095 Q1012.5537,764.095 1013.1943,764.2512 Q1013.8506,764.4075 1014.4131,764.7044 L1014.4131,767.4231 Q1013.7881,766.845 1013.1943,766.5794 Q1012.6006,766.2981 1011.9756,766.2981 Q1010.6318,766.2981 1009.9443,767.3762 Q1009.2568,768.4387 1009.2568,770.5325 Q1009.2568,772.6262 1009.9443,773.7044 Q1010.6318,774.7669 1011.9756,774.7669 Q1012.6006,774.7669 1013.1943,774.5012 Q1013.7881,774.22 1014.4131,773.6419 L1014.4131,776.3606 Z " fill="#000000"/><text fill="#000000" font-family="sans-serif" font-size="12" font-weight="bold" lengthAdjust="spacing" textLength="60.6621" x="1031.9443" y="774.8743">Question</text><line style="stroke:#181818;stroke-width:0.5;" x1="875.77" x2="1216.2807" y1="786.72" y2="786.72"/><text fill="#000000" font-family="sans-serif" font-size="14" lengthAdjust="spacing" textLength="147.4238" x="880.77" y="803.7151">-questionText: String</text><text fill="#000000" font-family="sans-serif" font-size="14" lengthAdjust="spacing" textLength="155.4971" x="880.77" y="820.012">-options: List&lt;String&gt;</text><text fill="#000000" font-family="sans-serif" font-size="14" lengthAdjust="spacing" textLength="205.0713" x="880.77" y="836.3089">-correctAnswer: List&lt;String&gt;</text><line style="stroke:#181818;stroke-width:0.5;" x1="875.77" x2="1216.2807" y1="843.6106" y2="843.6106"/><text fill="#000000" font-family="sans-serif" font-size="14" lengthAdjust="spacing" textLength="330.5107" x="880.77" y="860.6057">+checkAnswer(answer: List&lt;String&gt;): Boolean</text></g><!--class Report--><g id="elem_Report"><rect codeLine="74" fill="#F1F1F1" height="96.8906" id="Report" rx="2.5" ry="2.5" style="stroke:#181818;stroke-width:0.5;" width="206.7285" x="83.66" y="326.86"/><ellipse cx="159.8407" cy="342.86" fill="#ADD1B2" rx="11" ry="11" style="stroke:#181818;stroke-width:1;"/><path d="M162.8094,348.5006 Q162.2313,348.7975 161.5907,348.9381 Q160.95,349.0944 160.2469,349.0944 Q157.7469,349.0944 156.4188,347.4538 Q155.1063,345.7975 155.1063,342.6725 Q155.1063,339.5475 156.4188,337.8913 Q157.7469,336.235 160.2469,336.235 Q160.95,336.235 161.5907,336.3913 Q162.2469,336.5475 162.8094,336.8444 L162.8094,339.5631 Q162.1844,338.985 161.5907,338.7194 Q160.9969,338.4381 160.3719,338.4381 Q159.0282,338.4381 158.3407,339.5163 Q157.6532,340.5788 157.6532,342.6725 Q157.6532,344.7663 158.3407,345.8444 Q159.0282,346.9069 160.3719,346.9069 Q160.9969,346.9069 161.5907,346.6413 Q162.1844,346.36 162.8094,345.7819 L162.8094,348.5006 Z " fill="#000000"/><text fill="#000000" font-family="sans-serif" font-size="12" font-weight="bold" lengthAdjust="spacing" textLength="45.8672" x="180.3407" y="347.0143">Report</text><line style="stroke:#181818;stroke-width:0.5;" x1="84.66" x2="289.3885" y1="358.86" y2="358.86"/><text fill="#000000" font-family="sans-serif" font-size="14" lengthAdjust="spacing" textLength="122.8486" x="89.66" y="375.8551">-student: Student</text><text fill="#000000" font-family="sans-serif" font-size="14" lengthAdjust="spacing" textLength="194.7285" x="89.66" y="392.152">-grades: Map&lt;Subject, int&gt;</text><line style="stroke:#181818;stroke-width:0.5;" x1="84.66" x2="289.3885" y1="399.4538" y2="399.4538"/><text fill="#000000" font-family="sans-serif" font-size="14" lengthAdjust="spacing" textLength="124.8721" x="89.66" y="416.4489">+generate(): void</text></g><!--class Result--><g id="elem_Result"><rect codeLine="80" fill="#F1F1F1" height="113.1875" id="Result" rx="2.5" ry="2.5" style="stroke:#181818;stroke-width:0.5;" width="168.0645" x="930" y="318.71"/><ellipse cx="988.3252" cy="334.71" fill="#ADD1B2" rx="11" ry="11" style="stroke:#181818;stroke-width:1;"/><path d="M991.2939,340.3506 Q990.7158,340.6475 990.0752,340.7881 Q989.4346,340.9444 988.7314,340.9444 Q986.2314,340.9444 984.9033,339.3037 Q983.5908,337.6475 983.5908,334.5225 Q983.5908,331.3975 984.9033,329.7412 Q986.2314,328.085 988.7314,328.085 Q989.4346,328.085 990.0752,328.2412 Q990.7314,328.3975 991.2939,328.6944 L991.2939,331.4131 Q990.6689,330.835 990.0752,330.5694 Q989.4814,330.2881 988.8564,330.2881 Q987.5127,330.2881 986.8252,331.3662 Q986.1377,332.4287 986.1377,334.5225 Q986.1377,336.6162 986.8252,337.6944 Q987.5127,338.7569 988.8564,338.7569 Q989.4814,338.7569 990.0752,338.4912 Q990.6689,338.21 991.2939,337.6319 L991.2939,340.3506 Z " fill="#000000"/><text fill="#000000" font-family="sans-serif" font-size="12" font-weight="bold" lengthAdjust="spacing" textLength="42.9141" x="1008.8252" y="338.8643">Result</text><line style="stroke:#181818;stroke-width:0.5;" x1="931" x2="1097.0645" y1="350.71" y2="350.71"/><text fill="#000000" font-family="sans-serif" font-size="14" lengthAdjust="spacing" textLength="108.1309" x="936" y="367.7051">-examId: String</text><text fill="#000000" font-family="sans-serif" font-size="14" lengthAdjust="spacing" textLength="73.1924" x="936" y="384.002">-grade: int</text><text fill="#000000" font-family="sans-serif" font-size="14" lengthAdjust="spacing" textLength="120.3125" x="936" y="400.2989">-feedback: String</text><line style="stroke:#181818;stroke-width:0.5;" x1="931" x2="1097.0645" y1="407.6006" y2="407.6006"/><text fill="#000000" font-family="sans-serif" font-size="14" lengthAdjust="spacing" textLength="156.0645" x="936" y="424.5957">+calculateGrade(): int</text></g><!--reverse link User to Admin--><g id="link_User_Admin"><path codeLine="90" d="M575.03,220.06 C575.03,239.34 575.03,241.75 575.03,261.51 " fill="none" id="User-backto-Admin" style="stroke:#2F4F4F;stroke-width:1;"/><polygon fill="none" points="575.03,202.06,569.03,220.06,581.03,220.06,575.03,202.06" style="stroke:#2F4F4F;stroke-width:1;"/></g><!--reverse link User to Lecturer--><g id="link_User_Lecturer"><path codeLine="91" d="M482.3826,120.3535 C353.9026,142.5435 118.05,191.28 66.03,261.68 C6,342.91 20.12,398.97 66.03,488.94 C77.73,511.88 95.5,531.76 115.43,548.63 " fill="none" id="User-backto-Lecturer" style="stroke:#2F4F4F;stroke-width:1;"/><polygon fill="none" points="500.12,117.29,481.3615,114.441,483.4038,126.2659,500.12,117.29" style="stroke:#2F4F4F;stroke-width:1;"/></g><!--reverse link User to Student--><g id="link_User_Student"><path codeLine="92" d="M667.0585,132.1905 C730.7685,154.3805 801.15,190.38 842.03,261.68 C892.26,349.3 872.07,392.5 842.03,488.94 C831.31,523.34 808.15,556.68 787.88,581.24 " fill="none" id="User-backto-Student" style="stroke:#2F4F4F;stroke-width:1;"/><polygon fill="none" points="650.06,126.27,665.085,137.8567,669.032,126.5244,650.06,126.27" style="stroke:#2F4F4F;stroke-width:1;"/></g><!--reverse link Admin to Subject--><g id="link_Admin_Subject"><path codeLine="95" d="M587.1878,501.157 C593.4578,562.117 600.7,626.68 610.03,694.72 C612.69,714.17 616.05,735.38 619.2,754.26 " fill="none" id="Admin-backto-Subject" style="stroke:#2F4F4F;stroke-width:1;"/><polygon fill="none" points="585.96,489.22,582.5949,495.5978,587.1878,501.157,590.5529,494.7793,585.96,489.22" style="stroke:#2F4F4F;stroke-width:1;"/><text fill="#000000" font-family="sans-serif" font-size="13" lengthAdjust="spacing" textLength="8.271" x="578.4129" y="509.0688">1</text><text fill="#000000" font-family="sans-serif" font-size="13" lengthAdjust="spacing" textLength="23.0356" x="593.6031" y="743.4675">0..*</text></g><!--reverse link Admin to Lecturer--><g id="link_Admin_Lecturer"><path codeLine="96" d="M414.3589,496.4552 C387.4189,516.5952 369.63,529.9 344.73,548.52 " fill="none" id="Admin-backto-Lecturer" style="stroke:#2F4F4F;stroke-width:1;"/><polygon fill="none" points="423.97,489.27,416.7694,489.6589,414.3589,496.4552,421.5595,496.0663,423.97,489.27" style="stroke:#2F4F4F;stroke-width:1;"/><text fill="#000000" font-family="sans-serif" font-size="13" lengthAdjust="spacing" textLength="8.271" x="406.0455" y="509.122">1</text><text fill="#000000" font-family="sans-serif" font-size="13" lengthAdjust="spacing" textLength="23.0356" x="329.8525" y="537.891">0..*</text></g><!--reverse link Admin to Student--><g id="link_Admin_Student"><path codeLine="97" d="M663.3406,499.0091 C687.0306,531.9191 704.36,555.99 722.43,581.1 " fill="none" id="Admin-backto-Student" style="stroke:#2F4F4F;stroke-width:1;"/><polygon fill="none" points="656.33,489.27,656.5889,496.4765,663.3406,499.0091,663.0817,491.8027,656.33,489.27" style="stroke:#2F4F4F;stroke-width:1;"/><text fill="#000000" font-family="sans-serif" font-size="13" lengthAdjust="spacing" textLength="8.271" x="653.291" y="509.122">1</text><text fill="#000000" font-family="sans-serif" font-size="13" lengthAdjust="spacing" textLength="23.0356" x="693.0416" y="570.4913">0..*</text></g><!--link Student to Subject--><g id="link_Student_Subject"><path codeLine="101" d="M725.16,662.59 C707.81,689.25 687.9814,719.7103 668.7814,749.2303 " fill="none" id="Student-to-Subject" style="stroke:#2F4F4F;stroke-width:1;"/><polygon fill="#2F4F4F" points="665.51,754.26,673.7702,748.8963,668.2361,750.0686,667.0639,744.5345,665.51,754.26" style="stroke:#2F4F4F;stroke-width:1;"/><text fill="#000000" font-family="sans-serif" font-size="13" lengthAdjust="spacing" textLength="23.0356" x="696.4401" y="682.0574">0..*</text><text fill="#000000" font-family="sans-serif" font-size="13" lengthAdjust="spacing" textLength="23.0356" x="645.5571" y="743.4675">0..*</text></g><!--link Lecturer to Subject--><g id="link_Lecturer_Subject"><path codeLine="102" d="M395.06,695.18 C434.87,714.77 471.9661,733.0316 509.6561,751.5716 " fill="none" id="Lecturer-to-Subject" style="stroke:#2F4F4F;stroke-width:1;"/><polygon fill="#2F4F4F" points="515.04,754.22,508.7298,746.6582,510.5534,752.013,505.1986,753.8367,515.04,754.22" style="stroke:#2F4F4F;stroke-width:1;"/><text fill="#000000" font-family="sans-serif" font-size="13" lengthAdjust="spacing" textLength="23.0356" x="384.556" y="714.7063">0..*</text><text fill="#000000" font-family="sans-serif" font-size="13" lengthAdjust="spacing" textLength="23.0356" x="477.5328" y="743.8259">0..*</text></g><!--link Exam to Question--><g id="link_Exam_Question"><path codeLine="106" d="M1046.03,695.05 C1046.03,714.75 1046.03,735.8 1046.03,754.44 " fill="none" id="Exam-Question" style="stroke:#2F4F4F;stroke-width:1;"/><text fill="#000000" font-family="sans-serif" font-size="13" lengthAdjust="spacing" textLength="8.271" x="1037.6617" y="714.8168">1</text><text fill="#000000" font-family="sans-serif" font-size="13" lengthAdjust="spacing" textLength="16.5356" x="1029.0882" y="743.6694">1..</text></g><!--link Report to Lecturer--><g id="link_Report_Lecturer"><path codeLine="110" d="M198.93,424.04 C207.78,459.48 218.5382,502.6083 228.5682,542.8283 " fill="none" id="Report-to-Lecturer" style="stroke:#2F4F4F;stroke-width:1;"/><polygon fill="#2F4F4F" points="230.02,548.65,231.7234,538.9496,228.8102,543.7986,223.9612,540.8853,230.02,548.65" style="stroke:#2F4F4F;stroke-width:1;"/><text fill="#000000" font-family="sans-serif" font-size="13" lengthAdjust="spacing" textLength="8.271" x="192.0105" y="443.6724">1</text><text fill="#000000" font-family="sans-serif" font-size="13" lengthAdjust="spacing" textLength="8.271" x="219.867" y="537.7814">1</text></g><!--link Result to Student--><g id="link_Result_Student"><path codeLine="112" d="M960.67,432.17 C942.66,450.56 922.25,470.9 903.03,488.94 C869.02,520.86 833.7201,551.4841 803.3501,577.1841 " fill="none" id="Result-to-Student" style="stroke:#2F4F4F;stroke-width:1;"/><polygon fill="#2F4F4F" points="798.77,581.06,808.2241,578.2996,802.5868,577.8301,803.0563,572.1928,798.77,581.06" style="stroke:#2F4F4F;stroke-width:1;"/><text fill="#000000" font-family="sans-serif" font-size="13" lengthAdjust="spacing" textLength="8.271" x="945.6955" y="452.0896">1</text><text fill="#000000" font-family="sans-serif" font-size="13" lengthAdjust="spacing" textLength="8.271" x="797.7623" y="570.4449">1</text></g><!--link Exam to Subject--><g id="link_Exam_Subject"><path codeLine="114" d="M908.82,687.08 C903.15,689.67 897.54,692.23 892.03,694.72 C848.53,714.43 806.275,733.1606 763.535,751.9006 " fill="none" id="Exam-to-Subject" style="stroke:#2F4F4F;stroke-width:1;"/><polygon fill="#2F4F4F" points="758.04,754.31,767.8887,754.3593,762.6192,752.3022,764.6762,747.0326,758.04,754.31" style="stroke:#2F4F4F;stroke-width:1;"/><text fill="#000000" font-family="sans-serif" font-size="13" lengthAdjust="spacing" textLength="8.271" x="892.6642" y="687.4894">1</text><text fill="#000000" font-family="sans-serif" font-size="13" lengthAdjust="spacing" textLength="8.271" x="765.2926" y="743.5236">1</text></g><!--SRC=[bLRRSjem47ttLsZeGsaJcAIFJC9CRiqmaqpRa7w0i1QZ8akk98VSsc-lxjYEGr8UG3gxqfwpMgrGQyehB769SeQLEj5QqaMjOPOBFgUFW0uorNRvAhYUwmS6Q24OwRNQTOTV6YOifTYS2IOaEiToFMTOmwN43rds4PrY1NujMXexPWpL2gJAFFRJZD5JXindX2YP8Cfrc5atZakOeBbXpOi0LsRPHaZIWZ-W5vv_4PIOiXQsXvWeA1z-cg0xGSaM4xNkW7L5Z8ePNugEeG1jIS-8nItRFrRc2IaffqfBhEaTe6j1QWP1exC5aNi84pBNDG6kXyh_Mefkq0v4W866ZkyiwUwZ-whpFZ9cF47Nk3gAoBV5ByZrj9CBeo7iegp0ApC_2i0q-2Z0Cb_5MBca6YJ53Lx1j1LyPGBL4kIGXO7PE8pwDBzmtwrwX_j_wOxxR8L7fAqynUkH7crXGOavBc1Ukv1ggFp0-Fj1vE1AA2vj5qz2drfRNjpZKdKgqoJQmaCmNnDaXtt9JIwxazhZ5fFfKlEZ1gMfu3rvJDoSevrDqztXO6u8t40bfBjnVkGJ4CgchJ-2KRx6wxSbt57Ot82gMQE8_NmQGldy8yo9IrHiHn5_Uhshv890fwcObRJWj-9zzpfwl-DI6AwUb-MOscHRUG2xfHLWKjkE97YpiVuEHwUwHna8vfZbDTks4nlSj7C2hNep8LVrSiaWBj-MOw8TJObw37qBzxeZG5HDJjuq3RPSI6aqdN2rSMdgUXZEAyZNtZx4FMw6sgaG333VilErbxXrJot0XLMkGWlnkTstoUpMz4lrlk9s7vlRlNauIm2omFcwKsBfJD91fAVd-FZOX6BkcDMALieYrZ3ZAzETDEQvYN3fQ3BwwFoGR2x8t2jyz3mQ-RUgCK_zR0l5zDXNhoWa5A70vYiiWI2nCO7ijcX3zGgL9WMqOZId-Y7pB-7WS824sMXmC1v_7gI2zSQkDH7eNnkvM39AYPm6CbT2cFyTJPKzT69lyPkDHjCkfHWym3qUDl2PA2kXg0_y7Kiz4iktGhiBRSLOBOVZyI3T5RVbERNrtfPqSUyN8-AC1iFCz5k-xja-bBOFC7M_AP5PgCkcCUMnmIjOlD1_]--></g></svg>